<?xml version="1.0" encoding="UTF-8" standalone="no"?>
<svg
   xmlns:dc="http://purl.org/dc/elements/1.1/"
   xmlns:cc="http://creativecommons.org/ns#"
   xmlns:rdf="http://www.w3.org/1999/02/22-rdf-syntax-ns#"
   xmlns:svg="http://www.w3.org/2000/svg"
   xmlns="http://www.w3.org/2000/svg"
   xmlns:sodipodi="http://sodipodi.sourceforge.net/DTD/sodipodi-0.dtd"
   xmlns:inkscape="http://www.inkscape.org/namespaces/inkscape"
   width="127.10542mm"
   height="173.35371mm"
   viewBox="0 0 127.10542 173.35371"
   version="1.1"
   id="svg8"
   inkscape:version="1.0.1 (3bc2e813f5, 2020-09-07)"
   sodipodi:docname="mockup-logo.svg">
  <defs
     id="defs2">
    <inkscape:path-effect
       effect="fillet_chamfer"
       id="path-effect879"
       is_visible="true"
       lpeversion="1"
       satellites_param="F,0,0,1,0,15.875,0,1 @ F,0,0,1,0,15.875,0,1 @ F,0,0,1,0,15.875,0,1 @ F,0,0,1,0,15.875,0,1 @ F,0,0,1,0,15.875,0,1 @ F,0,0,1,0,15.875,0,1 @ F,0,0,1,0,15.875,0,1 @ F,0,0,1,0,15.875,0,1 @ F,0,0,1,0,15.875,0,1 @ F,0,0,1,0,15.875,0,1 @ F,0,0,1,0,15.875,0,1 @ F,0,0,1,0,15.875,0,1 @ F,0,0,1,0,15.875,0,1 @ F,0,0,1,0,15.875,0,1"
       unit="px"
       method="auto"
       mode="F"
       radius="60"
       chamfer_steps="1"
       flexible="false"
       use_knot_distance="true"
       apply_no_radius="true"
       apply_with_radius="true"
       only_selected="false"
       hide_knots="false" />
    <inkscape:path-effect
       effect="fillet_chamfer"
       id="path-effect867"
       is_visible="true"
       lpeversion="1"
       satellites_param="F,0,0,1,0,5.2916667,0,1 @ F,0,0,1,0,5.2916667,0,1 @ F,0,0,1,0,5.2916667,0,1 @ F,0,0,1,0,5.2916667,0,1"
       unit="px"
       method="auto"
       mode="F"
       radius="20"
       chamfer_steps="1"
       flexible="false"
       use_knot_distance="true"
       apply_no_radius="true"
       apply_with_radius="true"
       only_selected="false"
       hide_knots="false" />
    <inkscape:path-effect
       effect="fillet_chamfer"
       id="path-effect865"
       is_visible="true"
       lpeversion="1"
       satellites_param="F,0,0,1,0,5.2916667,0,1 @ F,0,0,1,0,5.2916667,0,1 @ F,0,0,1,0,5.2916667,0,1"
       unit="px"
       method="auto"
       mode="F"
       radius="20"
       chamfer_steps="1"
       flexible="false"
       use_knot_distance="true"
       apply_no_radius="true"
       apply_with_radius="true"
       only_selected="false"
       hide_knots="false" />
    <inkscape:path-effect
       effect="fillet_chamfer"
       id="path-effect853"
       is_visible="true"
       lpeversion="1"
       satellites_param="F,0,0,1,0,5.2916667,0,1 @ F,0,0,1,0,5.2916667,0,1 @ F,0,0,1,0,5.2916667,0,1 @ F,0,0,1,0,5.2916667,0,1 @ F,0,0,1,0,5.2916667,0,1 @ F,0,0,1,0,5.2916667,0,1 | F,0,0,1,0,5.2916667,0,1 @ F,0,0,1,0,5.2916667,0,1 @ F,0,0,1,0,5.2916667,0,1 @ F,0,0,1,0,5.2916667,0,1 @ F,0,0,1,0,5.2916667,0,1 @ F,0,0,1,0,5.2916667,0,1"
       unit="px"
       method="auto"
       mode="F"
       radius="20"
       chamfer_steps="1"
       flexible="false"
       use_knot_distance="true"
       apply_no_radius="true"
       apply_with_radius="true"
       only_selected="false"
       hide_knots="false" />
  </defs>
  <sodipodi:namedview
     id="base"
     pagecolor="#ffffff"
     bordercolor="#666666"
     borderopacity="1.0"
     inkscape:pageopacity="0.0"
     inkscape:pageshadow="2"
     inkscape:zoom="0.49497475"
     inkscape:cx="35.844396"
     inkscape:cy="263.3364"
     inkscape:document-units="mm"
     inkscape:current-layer="layer1"
     inkscape:document-rotation="0"
     showgrid="false"
     inkscape:window-width="1461"
     inkscape:window-height="1377"
     inkscape:window-x="2363"
     inkscape:window-y="2"
     inkscape:window-maximized="0"
     fit-margin-top="0"
     fit-margin-left="0"
     fit-margin-right="0"
     fit-margin-bottom="0" />
  <metadata
     id="metadata5">
    <rdf:RDF>
      <cc:Work
         rdf:about="">
        <dc:format>image/svg+xml</dc:format>
        <dc:type
           rdf:resource="http://purl.org/dc/dcmitype/StillImage" />
        <dc:title />
      </cc:Work>
    </rdf:RDF>
  </metadata>
  <g
     inkscape:label="Layer 1"
     inkscape:groupmode="layer"
     id="layer1"
     transform="translate(-41.447082,-47.404966)">
    <path
       id="path833"
       style="fill:#f9f9f9;stroke-width:0;stroke-linecap:round"
       inkscape:transform-center-y="-1.6027753e-06"
       d="M 322.49398,326.83193 170.3986,414.64268 a 27.496065,27.496065 120.00022 0 0 -13.74821,23.8124 v 245.60937 a 27.496173,27.496173 59.99988 0 0 13.74819,23.81244 l 212.70284,122.80286 a 27.496573,27.496573 0 0 0 27.49638,0 L 623.30064,707.87689 a 27.496173,27.496173 120.00012 0 0 13.74819,-23.81244 V 438.45508 A 27.496214,27.496214 59.999916 0 0 623.30065,414.64262 L 471.20716,326.83199 a 9.1654664,9.1654664 149.99992 0 0 -13.74818,7.93754 v 22.79883 a 27.496311,27.496311 60.000004 0 0 13.74815,23.8125 l 104.85331,60.53711 a 27.496311,27.496311 60.000004 0 1 13.74815,23.8125 v 191.05859 a 27.496471,27.496471 119.99985 0 1 -13.74811,23.81257 l -165.46276,95.53111 a 27.495979,27.495979 180 0 1 -27.49622,0 L 217.63873,680.60163 A 27.49647,27.49647 60.000148 0 1 203.89062,656.78906 V 465.73047 a 27.496459,27.496459 119.99986 0 1 13.74812,-23.81257 l 104.85533,-60.53892 a 27.496459,27.496459 119.99986 0 0 13.74812,-23.81257 l 0,-22.79688 a 9.1655161,9.1655161 30.000218 0 0 -13.74821,-7.9376 z"
       inkscape:path-effect="#path-effect879"
       inkscape:original-d="M 336.24219,318.89453 156.65039,422.58008 V 699.93945 L 396.84961,838.61719 637.04883,699.93945 V 422.58008 L 457.45898,318.89453 v 54.54883 l 132.34961,76.41211 V 672.66406 L 396.84961,784.07031 203.89062,672.66406 V 449.85547 l 132.35157,-76.41406 z"
       transform="scale(0.26458333)" />
    <g
       id="g871"
       style="fill:#f9f9f9"
       transform="translate(0,7.7508163)">
      <path
         style="fill:#f9f9f9;fill-opacity:1;stroke-width:0;stroke-linecap:round"
         id="rect855"
         width="12.504347"
         height="63.812729"
         x="98.747826"
         y="65.47834"
         inkscape:path-effect="#path-effect867"
         d="m 104.03949,65.47834 h 1.92102 a 5.2916667,5.2916667 45 0 1 5.29166,5.291667 V 123.9994 a 5.2916667,5.2916667 135 0 1 -5.29166,5.29167 h -1.92102 A 5.2916667,5.2916667 45 0 1 98.747826,123.9994 V 70.770007 a 5.2916667,5.2916667 135 0 1 5.291664,-5.291667 z"
         sodipodi:type="rect" />
      <path
         sodipodi:type="star"
         style="fill:#f9f9f9;fill-opacity:1;stroke-width:0;stroke-linecap:round"
         id="path857"
         sodipodi:sides="3"
         sodipodi:cx="105"
         sodipodi:cy="60.098213"
         sodipodi:r1="23.499208"
         sodipodi:r2="11.749604"
         sodipodi:arg1="0.52359878"
         sodipodi:arg2="1.5707963"
         inkscape:flatsided="true"
         inkscape:rounded="0"
         inkscape:randomized="0"
         d="m 120.05924,71.847817 -30.118485,0 A 3.0551452,3.0551452 60 0 1 87.294922,67.2651 L 102.35417,41.181723 a 3.0551452,3.0551452 2.5219892e-7 0 1 5.29166,0 L 122.70508,67.2651 a 3.0551452,3.0551452 120 0 1 -2.64584,4.582717 z"
         inkscape:transform-center-x="1.0761905e-06"
         inkscape:transform-center-y="-5.8748025"
         inkscape:path-effect="#path-effect865" />
    </g>
  </g>
</svg>
